<svg version="1.2" xmlns="http://www.w3.org/2000/svg" viewBox="0 0 1509 796" width="1509" height="796">
	<title>ciscooo-svg</title>
	<style>
		.s0 { fill: #ffffff }
	</style>
	<path id="cisco_c" fill-rule="evenodd" class="s0" d="m330.3 787.3c-30.2 9.6-62.6 10.8-93.5 3.3-7.2-1.8-14.3-4.1-21.2-7-6.8-3-13.5-6.5-19.7-10.5-6.3-4.1-12.2-8.6-17.8-13.6-5.5-5.1-10.6-10.6-15.2-16.4-9.1-12.3-16.1-26-20.8-40.5-4.7-14.5-6.9-29.7-6.7-45 0.2-15.3 2.9-30.4 8.1-44.8 5.1-14.4 12.5-27.9 22-39.8q4.7-5.8 10-11 5.3-5.1 11.2-9.7 5.8-4.5 12.2-8.3 6.3-3.9 13.1-7 6.7-3 13.6-5.3 7-2.3 14.1-4 7.2-1.6 14.4-2.5 7.3-1 14.6-1.1 8.1-0.4 16.1-0.1 8.1 0.3 16.1 1.3 8 1.1 15.8 2.9 7.9 1.7 15.6 4.2l3.2 0.8v70.3l-1.5-0.8q-7.7-4-15.8-6.8-8.2-2.8-16.6-4.4-8.5-1.6-17.1-1.9-8.6-0.4-17.2 0.6-4.8 0.6-9.6 1.8-4.7 1.3-9.2 3.2-4.4 2-8.6 4.5-4.1 2.6-7.9 5.7-4.2 3.4-7.8 7.4-3.6 4.1-6.5 8.6-2.8 4.6-4.9 9.6-2.1 5-3.3 10.3-1.3 5.1-1.8 10.4-0.6 5.3-0.4 10.6 0.2 5.3 1.1 10.6 1 5.2 2.6 10.2 1.5 4.7 3.7 9 2.2 4.4 5 8.4 2.8 4 6.2 7.5 3.3 3.5 7.2 6.5 5.4 4.1 11.4 7.2 6.1 3 12.5 4.9 6.5 1.9 13.3 2.7 6.7 0.7 13.5 0.1 6.5-0.3 13-1.2 6.4-1 12.8-2.6 6.3-1.6 12.5-3.9 6.1-2.2 12-5l1.4-0.6v69.8zm691.1 0c-30.2 9.6-62.6 10.8-93.5 3.3-7.2-1.8-14.3-4.1-21.2-7.1-6.9-2.9-13.5-6.4-19.7-10.4-6.3-4.1-12.2-8.6-17.8-13.7-5.5-5-10.6-10.5-15.2-16.4-9.1-12.2-16.1-25.9-20.8-40.4-4.7-14.6-7-29.8-6.7-45 0.2-15.3 2.9-30.4 8.1-44.8 5.1-14.4 12.5-27.9 22-39.8q4.7-5.8 10-11 5.3-5.1 11.2-9.7 5.8-4.5 12.2-8.3 6.3-3.9 13.1-7 6.6-3 13.6-5.3 6.9-2.4 14.1-4 7.1-1.6 14.4-2.5 7.3-1 14.6-1.1 8.1-0.5 16.1-0.1 8.1 0.3 16.1 1.3 8 1.1 15.8 2.8 7.9 1.8 15.6 4.3l3.2 0.8v70.3l-1.5-0.8q-7.7-4-15.8-6.8-8.2-2.8-16.6-4.4-8.5-1.6-17.1-1.9-8.6-0.4-17.2 0.6-4.8 0.6-9.6 1.8-4.7 1.3-9.2 3.2-4.4 2-8.6 4.5-4.2 2.6-7.9 5.7-4.2 3.4-7.8 7.4-3.6 4.1-6.5 8.6-2.8 4.6-4.9 9.6-2.1 5-3.3 10.2-1.3 5.2-1.8 10.5-0.6 5.3-0.4 10.6 0.2 5.3 1.1 10.5 1 5.3 2.6 10.3 1.5 4.7 3.7 9 2.2 4.4 5 8.4 2.8 4 6.1 7.5 3.4 3.5 7.3 6.5 5.4 4.1 11.4 7.1 6 3.1 12.5 5 6.5 1.9 13.3 2.6 6.7 0.7 13.5 0.2 6.5-0.3 13-1.2 6.4-1 12.8-2.6 6.3-1.6 12.5-3.9 6.1-2.2 12-5.1l1.4-0.6v69.9zm-437.2-58.8q8.9 2.3 18 4.2 4.4 0.8 8.7 1.5 4.4 0.7 8.8 1.3 4.3 0.6 8.7 1.1 4.4 0.4 8.8 0.8 3.4 0.1 6.7 0.2 3.4 0 6.8-0.2 3.3-0.2 6.7-0.5 3.3-0.4 6.6-0.9 2.3-0.3 4.5-0.8 2.3-0.5 4.4-1.1 2.2-0.7 4.3-1.6 2.1-0.9 4.1-1.9 1.9-1 3.5-2.3 1.6-1.3 3-2.9 1.3-1.6 2.3-3.4 1-1.9 1.6-3.9c0.8-3.3 0.8-6.7 0-10.1-1.4-3.6-3.5-6.8-6.4-9.5-4-3.9-8.9-6.9-14.2-8.8l-1.5-0.6-5.4-2q-5.3-1.7-10.7-3.4c-10.8-2.8-21.3-6.9-31.2-12.2-7.5-4-14.4-9-20.5-14.9-7.1-6.7-12.5-14.8-15.9-23.9q-2.4-6.8-3.7-14-1.2-7.1-1.2-14.3 0-7.2 1.3-14.4 1.2-7.1 3.7-13.9 1.6-4.5 3.8-8.7 2.3-4.2 5.1-8 2.8-3.9 6.1-7.3 3.3-3.5 7-6.4 5.5-4.4 11.7-8 6.1-3.5 12.6-6.2 6.6-2.6 13.5-4.3 6.8-1.6 13.9-2.3 5.6-0.7 11.2-1 5.6-0.3 11.2-0.3 5.6 0 11.2 0.4 5.7 0.4 11.2 1.1 4.3 0.5 8.6 1.2 4.3 0.6 8.6 1.4 4.3 0.7 8.5 1.6 4.2 0.9 8.5 1.9l4.3 0.9v55.5l-2.4-0.5c-11-2.8-22.2-4.8-33.5-6q-3.6-0.6-7.2-0.9-3.6-0.3-7.3-0.4-3.6 0-7.2 0.2-3.6 0.3-7.2 0.8c-5.7 0.6-11.1 2.2-16.2 4.7q-0.9 0.5-1.8 1-0.9 0.5-1.8 1.1-0.8 0.6-1.6 1.3-0.8 0.7-1.5 1.4-0.4 0.5-0.9 1-0.4 0.5-0.8 1-0.3 0.5-0.7 1-0.3 0.6-0.6 1.1-0.9 1.6-1.4 3.3-0.4 1.7-0.5 3.5-0.1 1.8 0.3 3.6 0.3 1.7 1.1 3.4 0.9 2 2.2 3.7 1.3 1.8 2.9 3.3 1.6 1.5 3.4 2.7 1.8 1.2 3.9 2.1l45.3 16.8q3.8 1.3 7.5 2.9 3.6 1.7 7.1 3.7 3.5 2 6.7 4.4 3.3 2.4 6.2 5 3.1 2.7 5.9 5.6 2.7 3 5.1 6.3 2.3 3.3 4.3 6.8 2 3.6 3.5 7.3c1.9 4.8 3.4 9.8 4.4 14.8 1 5.1 1.5 10.2 1.5 15.4 0.1 5.1-0.4 10.3-1.3 15.4-0.9 5-2.3 10-4.2 14.8q-1.6 4.4-3.7 8.5-2.2 4.1-4.8 7.9-2.7 3.8-5.8 7.2-3.1 3.4-6.6 6.4-3.9 3.3-8.2 6.2-4.2 2.9-8.7 5.3-4.6 2.4-9.3 4.4-4.8 1.9-9.7 3.3c-11.3 3.5-22.9 5.7-34.7 6.5q-4.6 0.3-9.2 0.3-4.6 0.1-9.2 0-4.6-0.1-9.2-0.3-4.7-0.3-9.3-0.7-21-1.5-41.7-5.4l-4.4-0.7 0.3-60.2zm-157.9-200h66.1v262h-66.1zm688.9 61.9c12.7-20.9 30.7-38.1 52.2-49.8 21.5-11.7 45.7-17.5 70.2-16.8 24.5 0.7 48.3 7.8 69.1 20.7 23.4 14 42 34.8 53.4 59.6 11.3 24.9 14.8 52.6 10 79.4-4.8 26.9-17.6 51.7-36.8 71.1-19.2 19.4-43.9 32.5-70.7 37.5-19.9 4.4-40.6 4.3-60.6-0.2-19.9-4.6-38.6-13.5-54.6-26.2-16.1-12.7-29.1-28.8-38.1-47.1-9.1-18.4-13.9-38.5-14.3-59 0.5-24.4 7.5-48.3 20.2-69.2zm51 61.5c-1.8 18 3.4 36 14.7 50.2 11.3 14.1 27.7 23.2 45.7 25.4 17.9 2.1 36-2.9 50.3-13.9 14.5-11.4 23.8-28 26-46.3 2.1-18.2-3.2-36.6-14.6-51-11.5-14.3-28.2-23.5-46.5-25.5-18.3-1.9-36.6 3.5-50.9 15.1-13.9 11.5-22.8 28.1-24.7 46zm-1166.4-406.5c0.2-8.6 3.7-16.7 9.8-22.7 6.1-6 14.3-9.3 22.9-9.3 8.5 0 16.7 3.3 22.8 9.3 6.2 6 9.7 14.1 9.8 22.7v72.6c-0.6 8.2-4.3 15.9-10.3 21.6-4.6 4.1-10.2 7-16.2 8.1-6.1 1.1-12.3 0.6-18.1-1.7-5.7-2.2-10.7-6.1-14.4-11-3.6-5-5.8-10.9-6.3-17zm180.8-90.2c0.3-8.5 3.9-16.5 10-22.3 6.1-5.9 14.2-9.2 22.7-9.2 8.5 0 16.6 3.3 22.7 9.2 6.1 5.8 9.7 13.8 10 22.3v162.8c-0.3 4.1-1.4 8.1-3.2 11.8-1.8 3.7-4.2 7-7.2 9.8-3 2.8-6.5 5-10.3 6.5-3.8 1.4-7.9 2.2-12 2.2-4.1 0-8.1-0.8-12-2.3-3.8-1.5-7.3-3.7-10.3-6.4-3-2.8-5.4-6.1-7.2-9.8-1.8-3.7-2.9-7.7-3.2-11.8 0 0 0-162.8 0-162.8zm179.9-123.8c0.4-8.3 4.1-16.2 10.1-22 6.1-5.8 14.2-9 22.6-9 8.4 0 16.4 3.2 22.5 9 6.1 5.8 9.7 13.7 10.1 22v352.2c-0.6 8.2-4.3 16-10.3 21.6-6.1 5.6-14.1 8.8-22.3 8.8-8.3 0-16.3-3.2-22.3-8.8-6.1-5.6-9.8-13.4-10.4-21.6zm181.4 123.7c0.3-8.4 3.9-16.4 10-22.3 6.1-5.9 14.2-9.2 22.7-9.2 8.5 0 16.6 3.3 22.7 9.2 6.1 5.9 9.7 13.9 10 22.3v162.8c-0.3 4.1-1.4 8.1-3.2 11.8-1.8 3.7-4.2 7-7.2 9.8-3 2.8-6.5 5-10.3 6.5-3.8 1.5-7.9 2.2-12 2.2-4.1 0-8.2-0.7-12-2.2-3.8-1.5-7.3-3.7-10.3-6.5-3-2.8-5.4-6.1-7.2-9.8-1.8-3.7-2.9-7.7-3.2-11.8 0 0 0-162.8 0-162.8zm180.5 90.2c0.2-8.5 3.7-16.7 9.8-22.7 6.1-5.9 14.3-9.3 22.9-9.3 8.5 0 16.7 3.4 22.8 9.3 6.1 6 9.7 14.2 9.8 22.7v72.6c-0.6 8.3-4.3 16-10.4 21.6-4.5 4.2-10.1 7-16.1 8.1-6.1 1.2-12.4 0.6-18.1-1.7-5.7-2.2-10.7-6-14.4-11-3.6-4.9-5.8-10.8-6.3-17zm180.8-90.1c0.3-8.5 3.9-16.5 10-22.4 6.1-5.9 14.2-9.2 22.7-9.2 8.5 0 16.6 3.3 22.7 9.2 6.1 5.9 9.6 13.9 10 22.4v162.7c-0.4 4.1-1.4 8.1-3.2 11.8-1.8 3.7-4.2 7-7.2 9.8-3 2.8-6.5 5-10.3 6.5-3.9 1.5-7.9 2.3-12 2.3-4.1 0-8.2-0.8-12-2.3-3.8-1.5-7.3-3.7-10.3-6.5-3-2.8-5.4-6.1-7.2-9.8-1.8-3.7-2.9-7.7-3.2-11.8 0 0.1 0-162.7 0-162.7zm179.9-123.8c0.4-8.4 4-16.3 10.1-22.1 6.1-5.7 14.2-9 22.5-9 8.4 0 16.5 3.3 22.6 9 6.1 5.8 9.7 13.7 10.1 22.1v352.1c-0.6 8.3-4.3 16-10.3 21.6-6.1 5.7-14.1 8.8-22.4 8.8-8.2 0-16.2-3.1-22.3-8.8-6-5.6-9.7-13.3-10.3-21.6zm181.4 123.8c0.3-8.5 3.9-16.5 10-22.4 6.1-5.9 14.2-9.1 22.7-9.1 8.4 0 16.6 3.2 22.7 9.1 6.1 5.9 9.6 13.9 9.9 22.4v162.8c-0.3 4.1-1.3 8-3.1 11.7-1.8 3.7-4.2 7.1-7.2 9.8-3 2.8-6.5 5-10.3 6.5-3.9 1.5-7.9 2.3-12 2.3-4.1 0-8.2-0.8-12-2.3-3.8-1.5-7.3-3.7-10.3-6.5-3-2.8-5.4-6.1-7.2-9.8-1.8-3.7-2.9-7.6-3.2-11.7 0 0 0-162.8 0-162.8zm178.7 90.2c0.2-8.6 3.7-16.7 9.8-22.7 6.1-6 14.4-9.4 22.9-9.4 8.6 0 16.8 3.4 22.9 9.4 6.1 6 9.6 14.1 9.8 22.7v72.6c-0.6 8.2-4.4 15.9-10.4 21.5-4.5 4.2-10.2 7.1-16.2 8.2-6.1 1.1-12.3 0.5-18.1-1.7-5.7-2.3-10.7-6.1-14.3-11-3.7-5-5.9-10.9-6.4-17z"/>
</svg>
